<?xml version="1.0" encoding="utf-8"?>
<!-- Generator: Adobe Illustrator 22.1.0, SVG Export Plug-In . SVG Version: 6.00 Build 0)  -->
<svg version="1.1" id="レイヤー_1" xmlns="http://www.w3.org/2000/svg" xmlns:xlink="http://www.w3.org/1999/xlink" x="0px"
	 y="0px" viewBox="0 0 34 25" style="enable-background:new 0 0 34 25;" xml:space="preserve">
<style type="text/css">
	.st0{fill:#FFFFFF;}
	.st1{fill:#50120F;}
	.st2{fill:url(#SVGID_1_);}
	.st3{enable-background:new    ;}
</style>
<rect x="393.1" y="136.9" transform="matrix(0.7071 -0.7071 0.7071 0.7071 22.7495 332.7975)" class="st0" width="40" height="4"/>
<rect x="491.7" y="217.4" class="st1" width="40" height="4"/>
<rect x="411.1" y="118.9" transform="matrix(0.7071 -0.7071 0.7071 0.7071 22.8047 332.7963)" class="st0" width="4" height="40"/>
<linearGradient id="SVGID_1_" gradientUnits="userSpaceOnUse" x1="17" y1="26.6151" x2="17" y2="6.0505" gradientTransform="matrix(1 0 0 -1 0 26)">
	<stop  offset="0" style="stop-color:#25492A"/>
	<stop  offset="1" style="stop-color:#042D0A"/>
</linearGradient>
<rect class="st2" width="34" height="25"/>
<g class="st3">
	<path class="st0" d="M8,11H7.1L5.8,6.9L5.9,11H4.7V5.5h1.5l1.3,4.1l1.3-4.1h1.5V11H9.2l0.1-4.1L8,11z"/>
	<path class="st0" d="M12.6,10l-0.3,1H11l2-5.5h1.4l2,5.5h-1.3l-0.3-1H12.6z M14.5,9.1l-0.8-2.4l-0.8,2.4H14.5z"/>
	<path class="st0" d="M21.9,10.1c0,0.6,0.1,0.7,0.2,0.7V11h-1.3c-0.1-0.1-0.1-0.3-0.1-0.7V9.7c0-0.3-0.1-0.5-0.2-0.6
		c-0.1-0.1-0.3-0.2-0.7-0.2h-1.5V11H17V5.5h3c1.3,0,2,0.7,2,1.5c0,0.4-0.1,0.7-0.4,1c-0.2,0.3-0.5,0.4-0.8,0.4
		c0.3,0,0.4,0.1,0.6,0.2c0.3,0.2,0.5,0.6,0.5,1V10.1z M18.3,7.9h1.6c0.4,0,0.8-0.2,0.8-0.8c0-0.5-0.4-0.7-0.8-0.7h-1.6V7.9z"/>
	<path class="st0" d="M24,9.3V11h-1.3V5.5H24v2.3l2.5-2.3H28l-2.3,2.2l2.5,3.4h-1.5l-1.9-2.5L24,9.3z"/>
</g>
<g class="st3">
	<path class="st0" d="M4.9,14.5H7c1.2,0,1.7,0.3,2.1,0.7c0.6,0.5,0.8,1.6,0.8,2.1c0,0.8-0.2,1.5-0.7,2.1C8.5,19.9,7.5,20,7,20H4.9
		V14.5z M6.2,19h0.9c0.4,0,0.6-0.1,0.9-0.3c0.4-0.3,0.5-1,0.5-1.4c0-0.9-0.4-1.7-1.4-1.7H6.2V19z"/>
	<path class="st0" d="M13.2,20.1c-1.4,0-2.8-1-2.8-2.9s1.4-2.9,2.8-2.9c1.4,0,2.8,0.9,2.8,2.9C16,19.2,14.6,20.1,13.2,20.1z
		 M11.7,17.2c0,1.5,0.9,1.9,1.5,1.9c0.6,0,1.5-0.3,1.5-1.9c0-1.5-0.9-1.9-1.5-1.9C12.6,15.4,11.7,15.7,11.7,17.2z"/>
	<path class="st0" d="M19.7,16.1L19.1,20h-1.4l-1.3-5.5h1.3l0.8,4.1l0.7-4.1h1.3l0.7,4.1l0.8-4.1h1.3L21.8,20h-1.4L19.7,16.1z"/>
	<path class="st0" d="M27.7,20l-2.8-3.8l0,3.8h-1.2v-5.5h1.2l2.8,3.8l0-3.8h1.2V20H27.7z"/>
</g>
</svg>
