<?xml version="1.0" encoding="utf-8"?>
<!-- Generator: Adobe Illustrator 22.1.0, SVG Export Plug-In . SVG Version: 6.00 Build 0)  -->
<svg version="1.1" id="レイヤー_1" xmlns="http://www.w3.org/2000/svg" xmlns:xlink="http://www.w3.org/1999/xlink" x="0px"
	 y="0px" viewBox="0 0 34 25" style="enable-background:new 0 0 34 25;" xml:space="preserve">
<style type="text/css">
	.st0{fill:#FFFFFF;}
	.st1{fill:#50120F;}
	.st2{fill:#1E78AA;}
	.st3{enable-background:new    ;}
</style>
<rect x="393.1" y="136.9" transform="matrix(0.7071 -0.7071 0.7071 0.7071 22.7495 332.7975)" class="st0" width="40" height="4"/>
<rect x="491.7" y="217.4" class="st1" width="40" height="4"/>
<rect x="411.1" y="118.9" transform="matrix(0.7071 -0.7071 0.7071 0.7071 22.8047 332.7963)" class="st0" width="4" height="40"/>
<rect class="st2" width="34" height="25"/>
<g class="st3">
	<path class="st0" d="M13.7,11.1c-1.4,0-2.8-1-2.8-2.9s1.4-2.9,2.8-2.9c1.4,0,2.8,0.9,2.8,2.9C16.4,10.2,15.1,11.1,13.7,11.1z
		 M12.2,8.2c0,1.5,0.9,1.9,1.5,1.9c0.6,0,1.5-0.3,1.5-1.9c0-1.5-0.9-1.9-1.5-1.9C13.1,6.4,12.2,6.7,12.2,8.2z"/>
	<path class="st0" d="M21.2,11l-2.8-3.8l0,3.8h-1.2V5.5h1.2l2.8,3.8l0-3.8h1.2V11H21.2z"/>
</g>
<g class="st3">
	<path class="st0" d="M9.3,17.7H6.6V20H5.4v-5.5h1.3v2.1h2.7v-2.1h1.3V20H9.3V17.7z"/>
	<path class="st0" d="M14.1,20.1c-1.4,0-2.8-1-2.8-2.9s1.4-2.9,2.8-2.9c1.4,0,2.8,0.9,2.8,2.9C16.8,19.2,15.5,20.1,14.1,20.1z
		 M12.6,17.2c0,1.5,0.9,1.9,1.5,1.9c0.6,0,1.5-0.3,1.5-1.9c0-1.5-0.9-1.9-1.5-1.9C13.5,15.4,12.6,15.7,12.6,17.2z"/>
	<path class="st0" d="M17.6,20v-5.5h1.3V19h2.8v1H17.6z"/>
	<path class="st0" d="M22.4,14.5h2.1c1.2,0,1.7,0.3,2.1,0.7c0.6,0.5,0.8,1.6,0.8,2.1c0,0.8-0.2,1.5-0.7,2.1
		c-0.6,0.6-1.6,0.7-2.1,0.7h-2.1V14.5z M23.6,19h0.9c0.4,0,0.6-0.1,0.9-0.3c0.4-0.3,0.5-1,0.5-1.4c0-0.9-0.4-1.7-1.5-1.7h-0.9V19z"
		/>
</g>
</svg>
