<?xml version="1.0" encoding="utf-8"?>
<!-- Generator: Adobe Illustrator 22.1.0, SVG Export Plug-In . SVG Version: 6.00 Build 0)  -->
<svg version="1.1" id="レイヤー_1" xmlns="http://www.w3.org/2000/svg" xmlns:xlink="http://www.w3.org/1999/xlink" x="0px"
	 y="0px" viewBox="0 0 34 25" style="enable-background:new 0 0 34 25;" xml:space="preserve">
<style type="text/css">
	.st0{fill:#FFFFFF;}
	.st1{fill:#50120F;}
	.st2{fill:url(#SVGID_1_);}
	.st3{enable-background:new    ;}
</style>
<rect x="393.1" y="136.9" transform="matrix(0.7071 -0.7071 0.7071 0.7071 22.7495 332.7975)" class="st0" width="40" height="4"/>
<rect x="491.7" y="217.4" class="st1" width="40" height="4"/>
<rect x="411.1" y="118.9" transform="matrix(0.7071 -0.7071 0.7071 0.7071 22.8047 332.7963)" class="st0" width="4" height="40"/>
<linearGradient id="SVGID_1_" gradientUnits="userSpaceOnUse" x1="17" y1="20.0999" x2="17" y2="8.5318" gradientTransform="matrix(1 0 0 -1 0 26)">
	<stop  offset="0" style="stop-color:#7B1817"/>
	<stop  offset="1" style="stop-color:#640C12"/>
</linearGradient>
<rect class="st2" width="34" height="25"/>
<g class="st3">
	<path class="st0" d="M7,9.3c0.1,0.6,0.5,0.8,1.1,0.8c0.1,0,0.5,0,0.7-0.1C8.9,9.9,9,9.7,9,9.5C9,9.3,8.9,9.1,8.6,9
		C8.4,9,7.5,8.6,7.3,8.5C6.6,8.3,5.8,8,5.8,7c0-0.2,0-0.6,0.4-1c0.4-0.5,1-0.7,1.8-0.7c0.4,0,1,0.1,1.4,0.3c0.6,0.4,0.7,1,0.8,1.4
		H8.9c0-0.2-0.1-0.4-0.2-0.4C8.7,6.5,8.5,6.4,8,6.4c-0.5,0-0.9,0.1-0.9,0.5c0,0.4,0.3,0.5,1.1,0.8c1.6,0.5,2.1,0.9,2.1,1.8
		c0,0.6-0.4,1.8-2.2,1.8c-0.5,0-1.5-0.1-2.1-0.9c-0.3-0.4-0.3-0.7-0.3-1H7z"/>
	<path class="st0" d="M13.7,11.1c-1.4,0-2.8-1-2.8-2.9s1.4-2.9,2.8-2.9c1.4,0,2.8,0.9,2.8,2.9C16.5,10.2,15.1,11.1,13.7,11.1z
		 M12.2,8.2c0,1.5,0.9,1.9,1.5,1.9c0.6,0,1.5-0.3,1.5-1.9c0-1.5-0.9-1.9-1.5-1.9C13.1,6.4,12.2,6.7,12.2,8.2z"/>
	<path class="st0" d="M17.2,11V5.5h1.3V10h2.8v1H17.2z"/>
	<path class="st0" d="M22,5.5h2.1c1.2,0,1.7,0.3,2.1,0.7c0.6,0.5,0.8,1.6,0.8,2.1c0,0.8-0.2,1.5-0.7,2.1c-0.6,0.6-1.6,0.7-2.1,0.7
		H22V5.5z M23.3,10h0.9c0.4,0,0.6-0.1,0.9-0.3c0.4-0.3,0.5-1,0.5-1.4c0-0.9-0.4-1.7-1.4-1.7h-0.9V10z"/>
</g>
<g class="st3">
	<path class="st0" d="M10.8,20.1c-1.4,0-2.8-1-2.8-2.9s1.4-2.9,2.8-2.9c1.4,0,2.8,0.9,2.8,2.9C13.6,19.2,12.2,20.1,10.8,20.1z
		 M9.3,17.2c0,1.5,0.9,1.9,1.5,1.9c0.6,0,1.5-0.3,1.5-1.9c0-1.5-0.9-1.9-1.5-1.9C10.2,15.4,9.3,15.7,9.3,17.2z"/>
	<path class="st0" d="M15.5,14.5v3.5c0,0.9,0.7,1.2,1.3,1.2c1,0,1.3-0.6,1.3-1.2v-3.5h1.3v3.4c0,0.4-0.1,1.2-0.6,1.7
		c-0.5,0.5-1.3,0.6-1.9,0.6c-0.3,0-1.4,0-2-0.6c-0.5-0.5-0.6-1.2-0.6-1.7v-3.4H15.5z"/>
	<path class="st0" d="M23.2,20h-1.3v-4.5h-1.9v-1h5v1h-1.9V20z"/>
</g>
</svg>
